HIERARCHY
ROOT Hips
{
	OFFSET 0.000000 0.000000 0.000000
	CHANNELS 6 Xposition Yposition Zposition Xrotation Yrotation Zrotation
	JOINT Chest
	{
		OFFSET 0.000000 0.009282 11.569106
		CHANNELS 3 Xrotation Yrotation Zrotation
		JOINT Chest2
		{
			OFFSET 0.000000 -0.016863 9.269641
			CHANNELS 3 Xrotation Yrotation Zrotation
			JOINT Chest3
			{
				OFFSET 0.000000 0.000000 8.374491
				CHANNELS 3 Xrotation Yrotation Zrotation
				JOINT Chest4
				{
					OFFSET 0.000000 0.000000 8.374493
					CHANNELS 3 Xrotation Yrotation Zrotation
					JOINT Neck
					{
						OFFSET 0.000000 -0.000001 12.152554
						CHANNELS 3 Xrotation Yrotation Zrotation
						JOINT Head
						{
							OFFSET 0.000000 -0.040100 7.802319
							CHANNELS 3 Xrotation Yrotation Zrotation
							End Site
							{
								OFFSET 0.000000 -0.020946 14.853096
							}
						}
					}
					JOINT RightCollar
					{
						OFFSET -2.894404 0.000000 6.791374
						CHANNELS 3 Xrotation Yrotation Zrotation
						JOINT RightShoulder
						{
							OFFSET -13.574684 0.000000 0.000000
							CHANNELS 3 Xrotation Yrotation Zrotation
							JOINT RightElbow
							{
								OFFSET -23.923903 0.000000 0.000000
								CHANNELS 3 Xrotation Yrotation Zrotation
								JOINT RightWrist
								{
									OFFSET -19.846718 -0.012765 0.000000
									CHANNELS 3 Xrotation Yrotation Zrotation
									End Site
									{
										OFFSET -14.973145 0.000000 0.000000
									}
								}
							}
						}
					}
					JOINT LeftCollar
					{
						OFFSET 2.894404 0.000000 6.791374
						CHANNELS 3 Xrotation Yrotation Zrotation
						JOINT LeftShoulder
						{
							OFFSET 13.574684 0.000000 0.000000
							CHANNELS 3 Xrotation Yrotation Zrotation
							JOINT LeftElbow
							{
								OFFSET 23.923903 0.000000 0.000000
								CHANNELS 3 Xrotation Yrotation Zrotation
								JOINT LeftWrist
								{
									OFFSET 19.846718 -0.012765 0.000000
									CHANNELS 3 Xrotation Yrotation Zrotation
									End Site
									{
										OFFSET 14.973145 0.000000 0.000000
									}
								}
							}
						}
					}
				}
			}
		}
	}
	JOINT RightHip
	{
		OFFSET -9.469263 -0.004642 0.045487
		CHANNELS 3 Xrotation Yrotation Zrotation
		JOINT RightKnee
		{
			OFFSET 0.000000 -0.002666 -40.478676
			CHANNELS 3 Xrotation Yrotation Zrotation
			JOINT RightAnkle
			{
				OFFSET 0.000000 -0.049110 -35.224068
				CHANNELS 3 Xrotation Yrotation Zrotation
				JOINT RightToe
				{
					OFFSET 0.000000 -12.539530 -6.151390
					CHANNELS 3 Xrotation Yrotation Zrotation
					End Site
					{
						OFFSET 0.000000 -5.044995 -1.291870
					}
				}
			}
		}
	}
	JOINT LeftHip
	{
		OFFSET 9.469263 -0.004642 0.045487
		CHANNELS 3 Xrotation Yrotation Zrotation
		JOINT LeftKnee
		{
			OFFSET 0.000000 -0.002666 -40.478676
			CHANNELS 3 Xrotation Yrotation Zrotation
			JOINT LeftAnkle
			{
				OFFSET 0.000000 -0.049110 -35.224068
				CHANNELS 3 Xrotation Yrotation Zrotation
				JOINT LeftToe
				{
					OFFSET 0.000000 -12.539530 -6.151390
					CHANNELS 3 Xrotation Yrotation Zrotation
					End Site
					{
						OFFSET 0.000000 -5.044995 -1.291870
					}
				}
			}
		}
	}
}
MOTION
Frames: 16
Frame Time: 0.016667
-20.245321 -3.588478 82.020477 0.096527 3.335510 -95.571449 5.045737 1.704723 -0.598998 2.253686 0.754497 -0.244471 2.253689 0.754497 -0.244473 1.689939 0.566783 -0.180571 21.019210 -6.044334 -6.359822 2.466002 -9.185551 -13.450749 -4.353207 -8.455937 -2.081675 25.847391 -42.819880 8.021029 41.008288 -16.976054 60.054411 -43.333493 21.713752 85.854262 -3.438409 6.708880 -2.689110 9.763450 43.065664 4.033860 63.308723 22.106367 -56.330267 -17.830077 -17.225486 -64.495031 -24.270275 8.863623 -8.121714 27.181182 -6.219116 -17.611370 4.218055 1.324415 15.786032 5.693431 2.253557 -0.305616 2.961465 9.726913 -13.136848 11.978636 0.847563 4.316131 -7.760454 -7.702344 7.258976 -0.035361 -0.107327 0.017311 
-20.463055 -3.362489 82.074188 0.159813 3.343685 -95.372581 5.101733 1.725985 -0.618243 2.275387 0.755500 -0.249802 2.275389 0.755502 -0.249802 1.706209 0.567565 -0.184537 21.121469 -6.139319 -6.351646 2.644345 -9.370853 -13.458037 -4.370214 -8.431436 -2.094168 25.831707 -42.803672 8.048375 41.018240 -17.034642 60.061890 -43.256367 21.719182 85.803323 -3.456854 6.710948 -2.707902 9.798145 43.080298 4.006194 63.299960 22.111262 -56.351721 -17.874923 -17.239099 -64.531327 -23.504301 8.205335 -8.370821 24.036071 -5.776344 -17.852754 5.095980 0.695373 15.885263 5.857023 2.538229 -0.345139 3.479229 9.417881 -12.857180 11.303734 0.772547 4.062053 -7.660082 -7.494160 7.078012 0.003196 -0.164202 0.016375 
-20.698179 -3.153480 82.111320 0.208316 3.372230 -95.193207 5.174200 1.762234 -0.622157 2.303548 0.762930 -0.249873 2.303548 0.762931 -0.249876 1.727324 0.573149 -0.184531 21.208721 -6.243509 -6.346508 2.793590 -9.570615 -13.474726 -4.423388 -8.416184 -2.124090 25.845702 -42.800735 8.097613 41.034376 -17.080176 60.054056 -43.193092 21.722226 85.759425 -3.510300 6.714408 -2.712040 9.850002 43.060070 3.979275 63.304017 22.152267 -56.399133 -17.925746 -17.257561 -64.582888 -22.697397 7.578897 -8.565569 20.973706 -5.256514 -18.057589 5.917845 -0.059965 16.045841 5.988980 2.760331 -0.374366 3.995595 9.142364 -12.571580 10.697853 0.700514 3.776908 -7.624933 -7.296160 6.937685 0.053697 -0.208526 0.009588 
-20.952427 -2.958920 82.134949 0.235959 3.393849 -95.037144 5.240373 1.808287 -0.608518 2.331370 0.776858 -0.245369 2.331372 0.776858 -0.245369 1.748192 0.583590 -0.181063 21.287471 -6.348582 -6.347202 2.926829 -9.769478 -13.502849 -4.448063 -8.404744 -2.157709 25.849986 -42.812203 8.179376 41.046746 -17.113555 60.023361 -43.159009 21.717898 85.746318 -3.552297 6.720703 -2.714820 9.863829 43.023768 3.972602 63.306366 22.207112 -56.452483 -17.983543 -17.269310 -64.660745 -21.894619 6.975802 -8.681812 18.052965 -4.646353 -18.333665 6.697032 -0.828648 16.267750 6.024732 2.852130 -0.389669 4.501833 8.907105 -12.299125 10.115319 0.637929 3.522752 -7.623151 -7.106509 6.800263 0.105925 -0.248432 0.002153 
-21.222820 -2.780821 82.148361 0.222025 3.380911 -94.899017 5.279396 1.874256 -0.580400 2.349713 0.798287 -0.239583 2.349713 0.798287 -0.239581 1.761943 0.599647 -0.176616 21.366418 -6.449556 -6.353548 3.060884 -9.959258 -13.539826 -4.427159 -8.401658 -2.164124 25.845909 -42.835265 8.262501 41.035575 -17.135119 59.977564 -43.149693 21.704459 85.761030 -3.578806 6.730639 -2.717237 9.842805 42.994354 3.995582 63.301531 22.246597 -56.507265 -18.048917 -17.278121 -64.762249 -21.165844 6.329355 -8.812779 15.329588 -3.862202 -18.624218 7.460565 -1.589448 16.501454 5.939979 2.863177 -0.382630 4.943632 8.714261 -12.077129 9.604101 0.629337 3.355412 -7.689740 -6.923293 6.686251 0.167915 -0.296849 -0.007897 
-21.497284 -2.612067 82.157082 0.173439 3.336768 -94.760077 5.289375 1.947191 -0.557102 2.357299 0.827038 -0.235848 2.357300 0.827038 -0.235849 1.767626 0.621200 -0.173697 21.453964 -6.539019 -6.363934 3.212355 -10.127758 -13.579726 -4.406911 -8.412419 -2.163237 25.891213 -42.853440 8.361828 41.016013 -17.143818 59.908190 -43.166710 21.685386 85.794498 -3.635283 6.757227 -2.692770 9.839314 42.964663 4.036170 63.302357 22.257927 -56.562624 -18.098768 -17.261317 -64.866819 -20.625192 5.652676 -9.061409 12.935744 -2.832959 -18.800482 8.226986 -2.409904 16.883968 5.759308 2.813924 -0.367634 5.280259 8.540667 -11.952597 9.229758 0.682740 3.335381 -7.769521 -6.698086 6.414845 0.169551 -0.366739 -0.010610 
-21.758102 -2.435987 82.163315 0.069871 3.251903 -94.630994 5.253056 2.046360 -0.517928 2.360834 0.865235 -0.237226 2.360835 0.865235 -0.237226 1.770259 0.649854 -0.174576 21.542574 -6.619551 -6.379642 3.366848 -10.278582 -13.626297 -4.422752 -8.433129 -2.160510 25.953194 -42.875444 8.439147 41.009900 -17.171613 59.815880 -43.164719 21.671695 85.807817 -3.693660 6.773766 -2.650828 9.813956 42.938578 4.081354 63.343960 22.253943 -56.633818 -18.153627 -17.218622 -64.976095 -20.275886 4.969083 -9.448070 10.820691 -1.639686 -19.234246 8.924212 -2.948161 17.473470 5.512112 2.561207 -0.334282 5.483580 8.427265 -11.906894 8.997276 0.789063 3.420964 -7.895855 -6.447401 6.315075 0.163543 -0.454786 -0.009547 
-22.013239 -2.271998 82.165833 -0.047575 3.192010 -94.448956 5.245990 2.136979 -0.517771 2.364874 0.910701 -0.242994 2.364874 0.910701 -0.242995 1.773254 0.683978 -0.178720 21.619249 -6.690446 -6.399933 3.500272 -10.409413 -13.679103 -4.466723 -8.451346 -2.168453 25.997551 -42.921981 8.482186 41.018059 -17.236725 59.711160 -43.110074 21.675197 85.775599 -3.755516 6.779592 -2.624965 9.781674 42.883261 4.136679 63.411128 22.281762 -56.743320 -18.198598 -17.197455 -65.106948 -19.896280 4.221436 -9.911474 8.835988 -0.369699 -19.748780 9.487383 -3.221231 18.008412 5.235981 2.168637 -0.280217 5.660298 8.334555 -11.919592 8.869874 0.882186 3.490958 -8.010678 -6.165720 6.217166 0.121929 -0.531547 -0.013606 
-22.269489 -2.130064 82.163704 -0.187526 3.185180 -94.218519 5.297509 2.242019 -0.561179 2.374186 0.959233 -0.248013 2.374187 0.959235 -0.248015 1.780210 0.720402 -0.182282 21.674325 -6.750621 -6.426136 3.594749 -10.516972 -13.741122 -4.522655 -8.464241 -2.170110 26.032855 -43.006180 8.496461 40.999717 -17.310814 59.612641 -42.999835 21.689093 85.705828 -3.815631 6.773841 -2.615420 9.801685 42.785343 4.162380 63.470728 22.325800 -56.905356 -18.248519 -17.206380 -65.235226 -19.351418 3.549756 -10.521320 6.928021 0.771994 -19.826127 9.893955 -3.414310 18.214643 4.939505 1.789254 -0.246483 5.861983 8.322309 -11.962520 8.805460 0.908690 3.534164 -8.103233 -5.899899 6.074266 0.067231 -0.567620 -0.019196 
-22.525145 -2.016922 82.156929 -0.353560 3.184299 -94.007288 5.356338 2.375218 -0.593842 2.387498 1.004947 -0.246858 2.387498 1.004947 -0.246859 1.790169 0.754687 -0.181216 21.708954 -6.796953 -6.457736 3.652847 -10.595823 -13.810418 -4.555775 -8.472967 -2.172944 26.055056 -43.114179 8.512506 40.964920 -17.360104 59.539442 -42.880590 21.716684 85.627008 -3.862408 6.766200 -2.616577 9.866110 42.657076 4.159595 63.496963 22.361114 -57.081732 -18.311432 -17.228823 -65.361420 -18.812093 3.129447 -11.280804 5.305953 1.580589 -19.495909 10.166593 -3.614176 18.151141 4.575582 1.530003 -0.259765 6.088786 8.361066 -11.939516 8.697556 0.917397 3.536698 -8.151330 -5.715361 5.927699 0.012891 -0.543955 -0.020088 
-22.794315 -1.924820 82.144478 -0.491254 3.169795 -93.847523 5.405627 2.481421 -0.590144 2.403396 1.043787 -0.238909 2.403397 1.043786 -0.238910 1.802092 0.783795 -0.175076 21.728495 -6.824226 -6.493282 3.685276 -10.637359 -13.882299 -4.558304 -8.478635 -2.178230 26.057585 -43.209095 8.554471 40.936923 -17.395206 59.497894 -42.790773 21.742872 85.568145 -3.883958 6.757959 -2.633240 9.902756 42.532947 4.168499 63.497250 22.379665 -57.238587 -18.375400 -17.243776 -65.464836 -18.390119 2.856434 -12.136005 4.131299 2.097455 -19.086195 10.223212 -3.759618 17.957664 4.161250 1.343325 -0.259083 6.362946 8.392740 -11.829555 8.489551 0.903212 3.455798 -8.172362 -5.609799 5.803625 -0.014259 -0.481157 -0.020308 
-23.083456 -1.839146 82.128098 -0.573616 3.130337 -93.728179 5.442170 2.529454 -0.562832 2.419046 1.075908 -0.226199 2.419050 1.075908 -0.226200 1.813837 0.807842 -0.165389 21.741711 -6.833118 -6.524787 3.708333 -10.645933 -13.941570 -4.555928 -8.496808 -2.184917 26.061237 -43.263661 8.625020 40.926654 -17.439635 59.487956 -42.755447 21.759217 85.550182 -3.910501 6.744976 -2.652981 9.896466 42.439035 4.213545 63.472060 22.385197 -57.347655 -18.412296 -17.237871 -65.540610 -18.086443 2.606136 -13.038864 3.356817 2.399156 -18.844623 10.145056 -3.769243 18.049482 3.675222 1.179200 -0.213557 6.683053 8.371125 -11.732607 8.175905 0.883926 3.332063 -8.150383 -5.547134 5.717081 -0.040813 -0.410546 -0.018268 
-23.397980 -1.754185 82.111801 -0.650263 3.073734 -93.635343 5.461439 2.558601 -0.522923 2.430281 1.101892 -0.214220 2.430279 1.101893 -0.214221 1.822266 0.827287 -0.156279 21.763216 -6.824655 -6.548957 3.749257 -10.625768 -13.981271 -4.554838 -8.526866 -2.189811 26.107522 -43.273347 8.734111 40.909756 -17.497510 59.487512 -42.787761 21.759548 85.575222 -3.936367 6.729914 -2.660704 9.815009 42.392341 4.296425 63.454568 22.384214 -57.397782 -18.418560 -17.210125 -65.602232 -17.891604 2.374291 -13.914945 2.919845 2.587851 -18.794886 9.991071 -3.661585 18.229770 3.124355 1.033223 -0.155879 7.013477 8.333378 -11.718331 7.842139 0.904883 3.220681 -8.165055 -5.519806 5.717064 -0.040298 -0.352744 -0.016323 
-23.732935 -1.667157 82.099602 -0.730858 3.018712 -93.529325 5.467271 2.574037 -0.499997 2.434835 1.123037 -0.206521 2.434834 1.123037 -0.206521 1.825688 0.843117 -0.150414 21.801154 -6.804638 -6.565212 3.822425 -10.588429 -14.001476 -4.542796 -8.563490 -2.191164 26.201909 -43.272247 8.863641 40.853100 -17.546860 59.466619 -42.859218 21.740702 85.626619 -3.940917 6.722866 -2.651799 9.706257 42.378455 4.366968 63.457266 22.365258 -57.410096 -18.439122 -17.163529 -65.659134 -17.719510 2.182289 -14.684171 2.670973 2.716781 -18.827971 9.859985 -3.498264 18.237360 2.514594 0.900826 -0.108557 7.341955 8.295278 -11.833964 7.545413 0.945512 3.204151 -8.181374 -5.492155 5.712845 -0.067803 -0.306152 -0.013863 
-24.090731 -1.575838 82.092987 -0.809755 2.976400 -93.394149 5.464825 2.575287 -0.506165 2.430532 1.137339 -0.203272 2.430531 1.137339 -0.203271 1.822462 0.853829 -0.147928 21.860326 -6.777190 -6.576294 3.936184 -10.541116 -14.008067 -4.498603 -8.588791 -2.173427 26.283919 -43.303379 8.952105 40.748055 -17.560596 59.415775 -42.921947 21.714114 85.680748 -3.922459 6.731021 -2.633769 9.636203 42.370556 4.396952 63.448667 22.359405 -57.418948 -18.462648 -17.117451 -65.707567 -17.492060 2.070357 -15.315652 2.482028 2.819268 -18.751941 9.792400 -3.346245 18.102491 1.902255 0.725772 -0.089579 7.682071 8.264824 -12.004886 7.279269 0.962952 3.274447 -8.160456 -5.432883 5.652495 -0.152138 -0.270505 -0.008672 
-24.465368 -1.483849 82.092903 -0.882181 2.917351 -93.260830 5.443415 2.576192 -0.510540 2.419897 1.140514 -0.202508 2.419898 1.140514 -0.202509 1.814488 0.856202 -0.147361 21.930383 -6.747265 -6.583333 4.070595 -10.491510 -14.005608 -4.439272 -8.589296 -2.136431 26.286229 -43.375837 8.948870 40.626997 -17.534308 59.365942 -42.941495 21.691117 85.706921 -3.926105 6.756965 -2.597540 9.656829 42.362247 4.375038 63.421141 22.352115 -57.432472 -18.495524 -17.088981 -65.727211 -17.206833 2.006040 -15.806542 2.206085 2.963194 -18.507977 9.821152 -3.338763 17.978176 1.399452 0.563750 -0.080698 8.015691 8.237477 -12.107369 7.026046 0.940031 3.346007 -8.160418 -5.342934 5.504260 -0.225771 -0.244358 -0.005474 
